<?xml version="1.0" encoding="utf-8"?>
<!-- Generator: Adobe Illustrator 21.0.0, SVG Export Plug-In . SVG Version: 6.00 Build 0)  -->
<svg version="1.1" id="Layer_1" xmlns="http://www.w3.org/2000/svg" xmlns:xlink="http://www.w3.org/1999/xlink" x="0px" y="0px"
	 viewBox="0 0 60 60" style="enable-background:new 0 0 60 60;" xml:space="preserve">
<style type="text/css">
	.st0{fill:#FFFFFF;}
	.st1{fill:#FAB005;}
	.st2{fill:#FA5252;}
	.st3{fill:#12B886;}
</style>
<circle class="st0" cx="18.8" cy="18.8" r="16.3"/>
<path class="st1" d="M18.8,0C8.4,0,0,8.4,0,18.8C0,35.6,18.8,45,18.8,45s18.8-9.4,18.8-26.3C37.5,8.4,29.1,0,18.8,0z M18.8,2.8
	c8.8,0,16,7.1,16,15.9s-7.2,16-16,16s-15.9-7.2-15.9-16S10,2.8,18.8,2.8z"/>
<circle class="st0" cx="41.3" cy="18.8" r="16.3"/>
<path class="st2" d="M41.3,0C30.9,0,22.5,8.4,22.5,18.8C22.5,35.6,41.3,45,41.3,45S60,35.6,60,18.8C60,8.4,51.6,0,41.3,0z M41.3,2.8
	c8.8,0,16,7.1,16,15.9s-7.2,16-16,16s-15.9-7.2-15.9-16S32.5,2.8,41.3,2.8z"/>
<circle class="st0" cx="30" cy="33.8" r="16.3"/>
<path class="st3" d="M30,15c-10.4,0-18.8,8.4-18.8,18.8C11.3,50.6,30,60,30,60s18.8-9.4,18.8-26.3C48.8,23.4,40.3,15,30,15z
	 M30,17.9c8.8,0,16,7.1,16,15.9s-7.2,16-16,16s-15.9-7.2-15.9-16S21.2,17.9,30,17.9z"/>
</svg>
