<?xml version="1.0" encoding="utf-8"?>
<!-- Generator: Adobe Illustrator 21.0.0, SVG Export Plug-In . SVG Version: 6.00 Build 0)  -->
<svg version="1.1" id="Layer_1" xmlns="http://www.w3.org/2000/svg" xmlns:xlink="http://www.w3.org/1999/xlink" x="0px" y="0px"
	 viewBox="0 0 50 60" style="enable-background:new 0 0 50 60;" xml:space="preserve">
<style type="text/css">
	.st0{fill:#FFFFFF;}
	.st1{fill:#12B886;}
	.st2{fill:none;stroke:#000000;stroke-linecap:round;stroke-linejoin:round;stroke-miterlimit:10;}
</style>
<g>
	<circle class="st0" cx="25" cy="25" r="21.5"/>
	<path class="st1" d="M25,0C11.2,0,0,11.2,0,25c0,22.5,25,35,25,35s25-12.5,25-35C50,11.2,38.8,0,25,0z M25,3.8
		c11.7,0,21.3,9.5,21.3,21.2S36.7,46.3,25,46.3S3.8,36.7,3.8,25S13.3,3.8,25,3.8z"/>
	<g>
		<path class="st2" d="M13.8,21h22.5v13H13.8V21z M12.8,34h24.5v2H12.8V34z M13.8,21h22.5L25,14.3L13.8,21z"/>
		<path class="st2" d="M32.5,21v0.9c0,1,0.8,1.9,1.9,1.9s1.9-0.9,1.9-1.9V21C36.3,21,32.5,21,32.5,21z"/>
		<path class="st2" d="M28.8,21v0.9c0,1,0.9,1.9,1.9,1.9s1.9-0.9,1.9-1.9V21H28.8z M25,21v0.9c0,1,0.9,1.9,1.9,1.9s1.9-0.9,1.9-1.9
			V21H25z"/>
		<path class="st2" d="M21.3,21v0.9c0,1,0.9,1.9,1.9,1.9s1.9-0.9,1.9-1.9V21H21.3z M17.5,21v0.9c0,1,0.9,1.9,1.9,1.9
			s1.9-0.9,1.9-1.9V21H17.5z"/>
		<path class="st2" d="M13.8,21v0.9c0,1,0.9,1.9,1.9,1.9s1.9-0.9,1.9-1.9V21H13.8z M21.3,21l3.7-6.7L17.5,21 M25,21v-6.7l3.8,6.7
			 M32.5,21L25,14.3 M13.8,34C25,34,25,21,25,21s0,13,11.3,13 M25,12.3V8.8l3.8,1.7L25,12.3z M25,14.3V12"/>
	</g>
</g>
</svg>
