<?xml version="1.0" encoding="utf-8"?>
<!-- Generator: Adobe Illustrator 21.0.0, SVG Export Plug-In . SVG Version: 6.00 Build 0)  -->
<svg version="1.1" id="Layer_4" xmlns="http://www.w3.org/2000/svg" xmlns:xlink="http://www.w3.org/1999/xlink" x="0px" y="0px"
	 viewBox="0 0 1920 1080" style="enable-background:new 0 0 1920 1080;" xml:space="preserve">
<style type="text/css">
	.st0{fill:#EFEBE9;}
	.st1{fill:#CCCCCC;}
	.st2{fill:#AED581;}
	.st3{fill:#999999;}
</style>
<g>
	<rect x="-2.8" y="-11.2" class="st0" width="2045" height="1091.1"/>
	<path class="st1" d="M2036.4,566.6l-476.4,375.7l-124.6-176.7l0.1-0.1l-66-91.4L2049,236.8l-10.2-15.8l-680.5,437.8l-25.9-35.9
		l-0.8-1.2l-55.1-41.3l-188.1-53.5L980.6,127L1144.5,5l-11.2-15.1L964.4,115.7L778.2,247.8L594.5-8l-15.3,11l183.7,255.7l-187.5,133
		L2.4,10.3L-8,25.9l566.8,377.2L300.4,578.9l-55.2-51.7L2.4,363.4l-10.5,15.6l241.6,163L286,591l-32.1,21l-22.7-33.6L2.3,429
		L-8,444.7l225.6,147.3l79.9,118.3L122.3,821l-89.4,39.1l-39.4,16.9l7.4,17.3l32.3-13.9l30.9,45.6l23,48.2L-8,1037.5l10.4,15.6
		l92.9-61.7l6.4,13.5l60.5,88.9l15.5-10.6L118,995.6l-33.5-70.3l258.8-147.1l213.2,315.7l15.6-10.5L359.8,768.9l21.4-11.8l239,344.5
		l324.9-229.1l118.3,168.5l29.8,52.2l16.3-9.3l-26-45.5l337-261.3l223.4,316.8l15.3-10.8l-88.5-125.5L2048,581.3L2036.4,566.6z
		 M1070,530.8L930.2,635.6l-220-151.4l290.1-212.1L1070,530.8z M964.4,138.7l30.7,114L693.8,473L592,403L964.4,138.7z M75.2,908.9
		l-24.5-36.1l80.4-35.2l176.9-111.7l24.7,36.6L75.2,908.9z M349.2,753.3l-84.9-125.8l32.7-21.8l74.3,135.4L349.2,753.3z
		 M624.8,1075.4L392,739.9l-80.2-146.1l263.7-179.4l345.9,238l13.3,166.8l2.8,35.6L624.8,1075.4z M1073.4,1022.5L956.5,856.1
		l-2.9-35.8l-13.4-168.7l124.9-93.7l17.4-13.1l185.4,52.7l50,37.5l91.5,126.7L1073.4,1022.5z"/>
	<polygon class="st2" points="624.4,393.7 735.2,314.8 759.6,346.7 665.7,418.1 	"/>
	<polygon class="st2" points="684.5,427.5 767.1,367.4 789.6,391.8 712.6,448.1 	"/>
	<polygon class="st2" points="832.8,247.2 857.2,282.9 964.3,204 951.1,162.7 	"/>
	<polygon class="st2" points="868.5,290.4 964.3,222.8 977.4,256.6 889.2,320.4 	"/>
	<polygon class="st2" points="1011.2,808.7 1011.2,913.9 1077,998.4 1353,789.9 1277.9,686.6 1215.9,651 	"/>
	<polygon class="st2" points="1093.2,1093.2 620.2,1101.6 945.1,872.5 1063.4,1041 	"/>
	<polyline class="st2" points="-31,404.9 -8.1,378.9 233.5,541.9 286,591 253.8,612 231.1,578.4 2.3,429 -31,404.9 	"/>
	<polygon class="st2" points="349.2,753.3 264.3,627.5 297,605.7 371.3,741.1 	"/>
	<polyline class="st2" points="594.3,1114.8 572.1,1083.2 359.8,768.9 381.2,757.1 620.2,1101.6 594.3,1114.8 	"/>
	<polyline class="st2" points="131.2,837.7 308.1,725.9 332.8,762.5 75.2,908.9 50.7,872.9 131.2,837.7 	"/>
	<polygon class="st2" points="1093.2,1093.2 1109.5,1083.8 1083.5,1038.3 1420.5,777.1 1643.9,1093.9 	"/>
	<polygon class="st3" points="1082,763 1174.6,689.1 1251,769.3 1142.1,855.6 	"/>
</g>
</svg>
