<?xml version="1.0" encoding="utf-8"?>
<!-- Generator: Adobe Illustrator 21.0.0, SVG Export Plug-In . SVG Version: 6.00 Build 0)  -->
<svg version="1.1" id="Layer_1" xmlns="http://www.w3.org/2000/svg" xmlns:xlink="http://www.w3.org/1999/xlink" x="0px" y="0px"
	 viewBox="0 0 1920 1080" style="enable-background:new 0 0 1920 1080;" xml:space="preserve">
<style type="text/css">
	.st0{fill:#A3CCFF;}
	.st1{fill:#CBE6A3;}
	.st2{fill:#DEE2E6;}
	.st3{fill:none;stroke:#FFFFFF;stroke-width:10;stroke-miterlimit:10;}
	.st4{fill:none;stroke:#FFFFFF;stroke-width:10;stroke-linecap:round;stroke-miterlimit:10;}
	.st5{fill:none;stroke:#FFFFFF;stroke-width:6;stroke-miterlimit:10;}
	.st6{fill:none;stroke:#FFFFFF;stroke-width:6;stroke-linecap:round;stroke-linejoin:round;stroke-miterlimit:10;}
	.st7{fill:none;stroke:#FFFFFF;stroke-width:6;stroke-linecap:round;stroke-miterlimit:10;}
</style>
<g id="Layer_2">
	<path class="st0" d="M-1-2h1928v1087H-1V-2z"/>
	<path class="st1" d="M1592.9,717.3c1.4,1.1,3.6,1.9,5.6,3.3c0.5,0.3,1,0.7,1.4,1.1c8,6.3,16,13.3,23.9,20.3c0.6,0.5,1.1,1,1.6,1.5
		s0.9,1,1.3,1.6c1.9,1.8,2.8,3.8,3.3,5.9c0.2,0.7,0.3,1.4,0.4,2.1c2.8,7,4.7,14,6,21.1c0.1,0.7,0.3,1.4,0.4,2.1
		c0.7,5,1.5,10.1,2.2,15.3c0.1,0.7,0.2,1.5,0.3,2.3c0.2,0.8,0.3,1.5,0.5,2.3c2.1,7.9,2.4,15.9,2.2,23.9c0,0.7-0.1,1.5-0.1,2.2
		c-0.3,3.9-0.5,7.6-0.6,11.3c0,0.7,0,1.5-0.1,2.2c0,0.8-0.1,1.6-0.1,2.4s-0.1,1.6-0.1,2.4c-0.6,3.9-0.8,7.7-0.8,11.4v1.6
		c-0.2,2.1-0.4,4.3-0.4,6.4v2.1c-0.7,2.2-1,4.5-1,6.7c0,0.7,0,1.5,0.1,2.2c-0.4,4,1,7.5,2.4,10.9c0.3,0.7,0.6,1.4,0.9,2
		c0.8,1,1.3,2.1,1.7,3.2c0.2,0.6,0.4,1.1,0.5,1.7c0.2,0.6,0.4,1.3,0.6,2c0.7,1.3,1.3,2.6,1.8,4c0.2,0.4,0.3,0.9,0.4,1.3
		c0.8,1.9,1.4,3.8,1.8,5.8c0.1,0.7,0.2,1.3,0.3,2c1.7,7.3,1.8,13.8,1.1,21.2c-0.1,0.7-0.1,1.3-0.2,2c0,2.1-0.1,4.3-0.3,6.5
		c0,0.5-0.1,1.1-0.1,1.7c-1.6,5.1-2.6,10.4-2.6,15.8v2.3c-0.4,3.6-0.1,6.9,0.5,10.2c0.1,0.6,0.3,1.3,0.4,1.9
		c1.9,5.4-0.1,12.4,2.6,17.9c0.1,0.7,0.2,1.3,0.2,2c0.4,3.3,0.7,6.6,0.2,9.7c0.1,0.6,0.2,1.2,0.4,1.9c0,0.7,0.1,1.5,0.1,2.2
		c0.1,2.2,0.2,4.3,0.1,6.4v1.9c0,3.2,0.3,6.5,0.2,9.6c-0.1,0.6-0.1,1.2-0.2,1.8c-0.3,3.1-0.4,6.1-0.1,9.2c-0.1,0.6-0.2,1.1-0.4,1.7
		c-0.7,2.9-1.7,5.7-3.1,8.4c-0.4,0.6-0.9,1.3-1.4,1.9c-4,5-8.6,9.4-13.8,12.7c-0.6,0.4-1.1,0.7-1.7,1.1c-3.5,1.1-7.2,0.9-10.8,1.2
		c-0.7,0.1-1.4,0.1-2.1,0.2c-5.2,1.6-10.2,1.6-15.2,1.5h-1.8c-2.4-0.1-4.8-0.2-7.2-0.4c-0.7-0.3-1.4-0.5-2.1-0.8
		c-9.6-4-18.8-9.5-29.1-10.4c-11.3-1-21.8,3.4-32.2,8.4c-0.7,0.3-1.4,0.7-2.1,0.9c-6,0.4-10.6,2-15.7,4.3c-0.6,0.3-1.1,0.5-1.7,0.8
		c-2.9,0.5-5.5,1.4-7.9,2.3c-0.6,0.2-1.2,0.5-1.8,0.7c-2,0.1-3.8,0.5-5.6,1.1c-0.6,0.2-1.2,0.4-1.7,0.6c-4.8,3.2-10.9,4.3-16.7,4.4
		h-1.9c-4,0.1-8.1,0.1-12.5,0.1h-1.9c-2.8,1-5.7,1.4-8.3,1c-0.7-0.1-1.3-0.2-2-0.4c-4,0.2-6.6-1-8.5-3c-0.5-0.5-0.9-1-1.2-1.6
		c-3.1-3.6-5-7.6-6.8-11.7c-0.3-0.6-0.5-1.2-0.8-1.8c-0.2-0.5-0.3-0.9-0.5-1.4s-0.3-1-0.5-1.5s-0.3-1.1-0.5-1.6
		c-1.4-6.1,1.6-11.1,2.1-17.1c0.1-0.7,0.3-1.4,0.4-2.1c1.1-5.8,5.1-9.8,6.4-15.4c0.3-0.6,0.5-1.3,0.7-1.9c1-2.5,2-5,3.4-7.3
		c0.3-0.5,0.7-1,1-1.5c1-1.5,2-3,2.8-4.6c3-5.4,4.6-11.4,5.8-17.5c0.1-0.7,0.3-1.4,0.4-2c-1-6.9,3.2-12.7,4.8-18.5
		c0.2-0.7,0.3-1.3,0.5-2c0.2-1.3,0.6-2.5,1-3.6c0.2-0.6,0.4-1.2,0.6-1.7c4.6-5.9,2.6-11.9,3.1-18.6c0.1-0.5,0.3-1,0.4-1.4
		c0.6-2.4,1-4.9,0.9-7.6c0.2-0.7,0.4-1.3,0.6-2c1.1-4.8,0.6-10.2,0.8-15c0.2-0.6,0.3-1.2,0.5-1.8c0.9-3.6,1.1-7.2,0.1-11
		c0-0.6-0.1-1.3-0.1-2c-0.2-2-0.6-4.3-1-6.8c0.1-0.8,0.2-1.5,0.3-2.3c1.8-16,2.3-32.2-3.1-47.1c-0.2-0.6-0.5-1.3-0.7-1.9
		s-0.5-1.3-0.8-1.9c-1.2-3.8-2-7.6-3.2-11.2c-0.2-0.5-0.3-1-0.5-1.5c-0.7-1.3-1.2-2.7-1.5-4.1c-1.1-3.5-1.1-8.5-1.5-12.6
		c-0.1-1.2-0.6-2.4-1.3-3.5c-0.3-0.7-0.5-1.3-0.8-2c-0.2-0.6-0.4-1.3-0.7-1.9c-0.1-0.7-0.3-1.3-0.4-2c-0.8-3.3-1.7-6.6-3-9.9
		c-0.2-0.7-0.4-1.3-0.6-2c-0.6-2-1.3-4-1.8-6.2c-0.1-0.7-0.1-1.3-0.2-2c-0.3-2.7-0.6-5.3-1.1-7.9c0-0.7,0.1-1.3,0.2-2
		c0.4-3.3,1.1-6.6,2.2-9.9c0.1-0.7,0.3-1.3,0.4-2c0.7-3.3,1.6-6.6,2.8-9.8c0.1-0.4,0.3-0.8,0.4-1.2c0.3-0.8,0.5-1.6,0.7-2.4
		c0.3-0.4,0.6-0.9,0.9-1.3c0.3-0.4,0.6-0.9,0.9-1.3c3.7-3.6,4.7-9.6,9.7-13c0.5-0.4,1-0.8,1.5-1.1c2.6-1.7,5.6-3,8.8-4.5
		c0.7-0.4,1.3-0.8,2-1.2c4.2-2.4,8.6-4.4,13.1-5.9c0.7-0.2,1.3-0.4,2-0.6c0.4-0.2,0.9-0.3,1.3-0.5c1.6-1.5,3.4-2.1,5.4-2.5
		c0.7-0.1,1.3-0.2,2-0.3c3.6-0.1,7.4-2.3,11.4-2.8c0.7-0.1,1.3-0.1,2,0c1.3-0.3,2.5-0.3,3.7-0.3c0.6,0,1.2,0,1.8,0.1
		c3.8,0.5,7.7,0.9,11.5,1.2c0.8,0.1,1.5,0.1,2.3,0.2c9,1.8,18.8,1.9,28.4,3l2.4,0.3c10.4,1.3,19.4,4.3,27.5,9.2
		C1592.4,717,1592.7,717.1,1592.9,717.3L1592.9,717.3z M889.7,779.1c2.3,0.9,4.3,0.9,5.4,3.3c0.4,0.4,0.9,0.8,1.4,1.1
		c0.9,0.7,2,1.3,3.2,1.8c0.6,0.3,1.3,0.5,1.9,0.8c3.3,1.2,6.8,2.1,10.6,2.6c1.7,0.4,3.4,0.7,5.1,1c3.4,0.5,6.9,0.9,10.2,1
		c1.8,0.2,3.6,0.4,5.4,0.7c12.5,2,24.3,6.9,32.7,15.3c1.1,0.9,2.3,1.8,3.4,2.7c11,9.6,22,19.6,29.5,31.4c1,1.5,1.9,3,2.9,4.5
		c4.6,13.7,26.6,27.7,18.1,42.4c-1,1.1-2.1,2.1-3.2,3.1c-7.5,7.3-15.1,14.5-17.5,25.3c-0.8,1.5-1.6,2.9-2.5,4.3
		c-2.7,4.1-6.2,7.6-11.1,9.7c-1.2,0.5-2.5,1-3.8,1.3c-5.2,1.5-10.8,2.2-16.6,1.9c-1.5,0.3-3.1,0.6-4.6,0.8
		c-9.3,1.2-19.1,0.6-29.1-0.7l-3.3,0.6c-5.5,1.2-10.9,3.2-15.8,5.8c-1.5,0.8-3,1.6-4.4,2.6C891,951,879,965,870,981.4
		c-0.8,1.3-1.7,2.6-2.5,3.8c-3.4,5-7.1,9.8-12.2,13.1c-1.3,0.9-2.7,1.7-4,2.6c-12,7.9-21.6,20.2-27.6,33.2l-2.1,4.5
		c-0.7,1.5-1.3,3.1-1.9,4.8c-0.7,1.4-1.3,2.8-1.9,4.3c-2.9,7.4-4.2,15.6-6,23.3c-0.1,1.6-0.1,3.2,0.2,4.8c0.3,1.7,0.9,3.3,1.7,5.1
		l-436.3,0.1c-20.5-25.1,0.5-56.1,23.6-70.2c2.8-2,5.8-3.9,8.9-5.5c3.1-1.7,6.3-3.2,9.5-4.5c3.2-2.1,6.4-4.1,9.5-6.2
		c32.1-20.7,64.8-40.4,98.3-58.8c3.3-1.8,6.7-3.7,10-5.6c2.4-1.4,4.8-3,7.1-4.7c1.2-0.8,2.4-1.7,3.6-2.5c8.9-6,18.5-11.5,27.7-17.3
		c1.5-1,3.1-2,4.6-3C588,898,601,883,608,896c0.7,1.2,1.1,2.4,1.3,3.7s0.3,2.6,0.2,3.9C608,920,599,941,611.9,954.7
		c1.4,1,2.9,1.7,4.4,2.2s3.1,0.9,4.7,1c1.6,0.2,3.2,0.2,4.9,0.2c6.3-0.7,12.5,0.3,18.7,1.8c1.5,0.4,3.1,0.8,4.6,1.3
		C657,964,665,965,671,971c2,1.7,4.1,3.3,6.3,4.9l3.3,2.4c2.9,2.4,5.5,5.1,8,7.8l2.4,2.7c8,11.2,12,32.2,22,31.2
		c11-2,15-23,17.9-38.4c0.2-1.7,0.4-3.5,0.5-5.2s0.1-3.5,0.1-5.3c0.2-1.6,0.4-3.2,0.5-4.7c0.2-6.2-1.7-12-7.6-16.9
		c-0.9-1-1.8-2-2.8-2.9c-1.2-1.3-2.5-2.5-3.8-3.8c-2.8-2.7-4.8-4.7-7.9-7.2c-1.3-1.2-2.7-2.3-4.1-3.5c-1.2-1.4-2.4-2.7-3.7-4
		c-2.8-3.5-5.9-6.6-9.2-9.5c-1.1-1-2.2-1.9-3.4-2.8C682,907,667,909,661,899c-7-10,2-22,9.3-31.3c0.9-1.2,1.9-2.5,2.9-3.6
		c1.9-2.4,3.9-4.6,5.6-6.8c1-1.4,2-2.7,3-4.1c15-20.1,37.8-35.7,60.7-47c14.8-7.2,30.3-13.5,45.5-20.3c1.7-0.8,3.4-1.5,5-2.3
		c7.3-2.6,14.5-5.1,21.3-8c1.7-0.7,3.4-1.5,5-2.3c4.9-1.2,9.4-3,13.6-5.4c0.6-0.3,1.2-0.7,1.8-1.1c2.7,0,4.8-0.4,6.4-1
		c0.6-0.2,1.1-0.5,1.6-0.7c0.5-0.4,1.1-0.6,1.7-0.8c0.6-0.1,1.2-0.1,1.8,0c0.7-0.1,1.4-0.1,2.1-0.1c3.6-0.4,8.6,0.6,12.2-0.4
		c1.5-0.2,2.9-0.3,4.2-0.3c4,0,7.5,2,11.1,6.2c0.6,0.3,1.1,0.6,1.7,1s1.1,0.7,1.6,1.1c0.4,0.5,0.9,1,1.5,1.4c2.7,2.1,6.6,3,8.5,5.2
		C889.5,778.9,889.7,779.1,889.7,779.1L889.7,779.1z"/>
	<path class="st2" d="M856.4,701.2c-9.1-7.1-21.9-3.6-32.8-5.8c-1.9-0.2-3.7-0.3-5.5-0.5s-3.5-0.4-5-0.7c-1.7-0.3-3.5-0.6-5.3-0.9
		c-5.3-0.7-10.7-0.6-16.2,0.5c-1.6,0-3.1,0.1-4.6,0.4c-13.7,2-25.5,12.1-39,15.3c-1.7,0.6-3.4,1.1-5.1,1.7
		c-13.5,4.6-26.7,10.1-39.8,15.6c-30.5,12.7-61.3,25.5-88,45c-10.8,7.8-20.9,16.8-33,22.4c-4,1.9-8.2,3.3-12.4,4.5
		c-1.4,0.4-2.8,0.8-4.3,1.2C545,801,526,803,514.3,821.7l-3.9,3c-0.8,0.7-1.7,1.3-2.5,2s-1.7,1.4-2.5,2.1C492,837,488,852,482,865
		c-1,2-5,3-6.6,3.6c-1.3,0.5-2.7,1-4,1.6c-1.3,0.5-2.7,1.1-3.9,1.8l-5.1,2.1c-9.5,3.8-19.5,6.9-29.5,10.1c-1.7,0.5-3.3,1.1-5,1.6
		C408,887,391,892,382.2,911.5c-1.3,0.8-2.7,1.5-4.2,2.2c-5.7,2.5-12.2,3.5-18.5,2.9c-9.4-1-18.1-5.2-25.4-11.2
		c-1.2-1-2.4-2-3.5-3.1c-1.1-0.9-2.2-1.9-3.3-2.9c-1.1-1-2.3-2.1-3.5-3.1c-5.2-6.5-11.3-9.4-17.6-9.6c-1.6,0-3.1,0.1-4.7,0.4
		C290,889,285,903,275,905c-11,2-19-16-30.6-9.5c-1.3,0.7-2.5,1.5-3.7,2.6c-2.3,2.2-4.2,5.4-5.5,9.8c-0.6,1.5-1,3.2-1.4,4.8
		c-1.9,8.3-2.1,17.9-3.4,25.6c-0.1,3.3,0,6.6,0.4,9.9c0.7,6.6,2.3,13,4.8,19.3c0.9,2.9,1.9,5.8,2.9,8.7c2,5.8,4,11.7,5.5,17.7
		c0,2,0,5-0.9,6.7c-0.5,2.2-1.2,4.5-2,6.7c-2.4,6.6-5.6,13.1-7.1,19.6c-0.9,3.3-1.9,6.5-2.6,9.8c-1.5,6.7-2.4,13.7-2.4,21.2
		c0,1.5-0.4,2.8-1.2,3.9c-3.6,5.7-7.7,9.5-12.4,11.8c-1.5,0.8-3.1,1.4-4.8,1.8c-1.4,0.5-2.9,0.9-4.3,1.2c-0.5,0.1-0.9,0.2-1.4,0.2
		c-3.5,0.1-6.5-1.4-9.5-3c-0.6-0.3-1.2-0.7-1.8-1c-3.5-1.7-7.1-3.9-10.8-4.7c-0.5-0.1-1.1-0.2-1.6-0.3c-7.3-0.8-16.3,0.2-19,7.7
		c-0.3,0.6-0.5,1.1-0.6,1.7c-0.3,1.2-0.5,2.4-0.5,3.7l-160.6,0.6l-1-1083h1538c0.5,4.5,4.5,6.5,5.2,9.4c0.3,0.6,0.6,1.1,0.9,1.7
		c0.6,1.1,1.1,2.2,1.6,3.3c0.3,0.5,0.5,1.1,0.8,1.6c4.1,5.5,5.1,11.5,9.5,16.3c0.4,0.5,0.8,1.1,1.1,1.7c0.6,2.6,1.8,4.7,3.1,6.5
		c0.3,0.5,0.7,0.9,1,1.4c3.4,3.6,4.4,9.6,8.3,12.9c0.3,0.5,0.5,0.9,0.8,1.4c0.2,0.4,0.4,0.9,0.6,1.3c0.6,1.2,1,2.2,1.5,3.2
		c4.2,9.3,10.9,18.2,15.7,27.6c0.3,0.6,0.7,1.2,1,1.8c1.6,3,3.1,6.1,4.4,9c0.2,0.5,0.5,1,0.7,1.5c1.3,2.5,2.7,4.9,4.4,7.4
		c0.3,0.7,0.7,1.3,1.1,2c0.7,1.3,1.5,2.6,2.3,3.9c0.4,0.7,0.7,1.4,1.1,2c2.5,4.7,5.3,9.3,8.3,13.5c0.4,0.6,0.8,1.3,1.2,1.9
		c2.7,4.4,4.6,8.8,7.9,12.6c0.5,0.5,0.9,1,1.3,1.6c0.9,1.1,1.7,2.2,2.3,3.5c0.3,0.6,0.5,1.1,0.8,1.8c3.8,4.8,7.8,10.8,10.6,17
		c0.4,0.6,0.7,1.3,1.1,1.9c2.5,4.5,5,9.1,8.3,13c0.4,0.6,0.7,1.2,1.1,1.8c2.6,4.1,5.4,8,8,11.8c0.4,0.6,0.7,1.3,1.1,1.9
		c1.9,3.1,3.7,6.2,5.6,9.2c0.3,0.7,0.7,1.3,1,2c1.1,1.9,2.3,3.8,3.8,5.6c0.2,0.6,0.5,1.3,0.7,1.9c0.7,1.8,1.7,3.5,3.2,5.1
		c0.4,0.6,0.8,1.3,1.3,1.9c3.1,4.3,7.2,8.3,8.9,13c0.4,0.7,0.7,1.3,1.1,2c2.2,4,4.4,8,6.8,12c0.3,0.7,0.5,1.4,0.8,2
		c1.7,4,3.6,7.8,6.3,11.2c0.3,0.6,0.6,1.3,0.9,1.9c2.2,4.4,4.6,8.7,6.5,13.2c0.2,0.6,0.4,1.1,0.7,1.6c1.1,2.7,2.4,5.3,4.1,7.7
		c0.3,0.7,0.7,1.3,1,2c1.7,3.4,3.6,6.7,5,10.3c0.2,0.5,0.4,1.1,0.6,1.6c0.6,1.6,1.4,3.2,2.5,4.7c0.2,0.6,0.5,1.2,0.8,1.8
		c1.7,3.6,4.1,7.1,5.8,10.5c0.3,0.7,0.6,1.4,0.8,2c0.6,1.3,1.1,2.6,1.6,3.9l0.9,1.8c1.8,3.7,4.2,7.2,5.4,10.9c0.3,0.7,0.6,1.3,0.9,2
		c2.1,4.7,4.6,9.4,7.1,14.2c0.1,0.4,0.3,0.9,0.4,1.3c0.4,1.3,0.8,2.7,1.2,4.1l0.6,1.5c0.6,1.5,1.4,2.9,2.5,4.3
		c0.2,0.4,0.4,0.8,0.8,1.3c2,3.6,4.7,7.1,6.6,11c0.3,0.7,0.6,1.4,0.9,2c1.4,3.4,3,6.7,4.7,9.9l0.6,1.8c1.8,5.6,3.9,11.8,8.4,17.4
		c0.4,0.5,0.8,1.1,1.3,1.6c2.2,2.6,4.6,5.1,6.5,8.1l1.2,1.2c0.4,0.4,0.8,0.8,1.3,1.1c0.2,0.4,0.4,0.9,0.6,1.3s0.4,0.8,0.5,1.3
		c0.2,0.4,0.3,0.8,0.5,1.2c0.2,0.7,0.3,1.3,0.5,2c2.7,9,1.7,20,6,29.1c0.2,0.7,0.5,1.4,0.7,2.1c0.5,1.4,1.1,2.8,1.7,4.1
		c0.2,0.6,0.3,1.3,0.5,1.9c0.9,3.1,1.8,6.2,2.8,9.3c0.2,0.6,0.3,1.2,0.5,1.8c1.2,4.9,2.6,9.7,3.8,14.6c31.2,116.5,50,235.9,68.8,355
		c0,0,0,0.2,0.1,0.6c0.3,0.5,0.5,0.9,0.8,1.4s0.5,0.9,0.7,1.4c1,2,2.1,3.9,3.2,5.7c0.4,0.6,0.7,1.2,1,1.8c4.1,6.2,6.1,14.2,3.5,21.1
		l-0.3,2.1c-0.9,5.5-2.3,10.4-3,15.9c0.1,0.7,0.2,1.4,0.2,2.2c5.6,22.9,9.6,46.9,6.2,70.8c-0.1,0.7-0.1,1.3-0.2,2s-0.2,1.3-0.4,2
		c-0.1,0.6-0.3,1.2-0.5,1.8c-1.5,6.3-4.5,12.3-8.8,17.7c-0.3,0.6-0.6,1.1-0.9,1.7c-1.2,2.2-2.7,4.3-4.5,5.8c-0.4,0.5-0.7,1.1-1,1.6
		c-1.3,2.1-2.9,4-5.3,5.5c-0.4,0.5-0.9,0.9-1.3,1.4c-2.2,2.2-4.8,4-7.8,4.9l-1.8,0.9c-1.2,0.6-2.5,1-3.8,1.5c-0.7,0.4-1.4,0.8-2,1.2
		c-6.9,3.7-14.7,5.6-23.2,4.5c-0.8,0-1.5-0.1-2.3-0.2l-2.4-0.3c-0.7-0.1-1.5-0.2-2.2-0.4c-0.7-0.1-1.3-0.2-2-0.3
		c-4-0.7-7.8-2.3-11.3-4.8c-0.4-0.2-0.8-0.3-1.3-0.5c-2.1-0.9-4-2.1-5.8-3.8c-0.5-0.4-1-0.9-1.4-1.4s-0.9-1.1-1.3-1.7
		c-0.4-0.5-0.7-0.9-1.1-1.4c-2.8-3.9-4.5-8.6-6.7-12.8c-0.4-0.7-0.9-1.3-1.3-2s-0.8-1.4-1.2-2c-1.7-4.6-3.7-10.6-6.4-15.9
		c-0.3-0.6-0.5-1.2-0.8-1.9c-0.8-1.8-1.7-3.6-3.1-5.1c-0.2-0.6-0.5-1.2-0.8-1.8c-0.8-1.8-1.9-3.4-3.3-4.9c-0.3-0.6-0.6-1.3-0.9-1.9
		c-0.7-1.2-1.4-2.4-2.4-3.4c-0.3-0.6-0.7-1.2-1.1-1.8c-4-5.1-7-10.1-10.1-15.1c-0.3-0.5-0.6-1.1-1-1.6l-3-4.8
		c-0.3-0.6-0.6-1.3-1-1.9c-3-5.6-6.4-11.1-8.9-17.1c-0.2-0.7-0.5-1.4-0.7-2.1c-0.2-0.7-0.4-1.4-0.7-2.1c-0.2-0.7-0.4-1.4-0.7-2.1
		c-2-6.2-2-13.2-2.7-20.5c0-0.7,0.1-1.4,0.1-2.2c0.1-2.1,0-4.3-0.1-6.6c0-0.6,0.1-1.3,0.1-1.9c0.2-3.2,0.4-6.5,0.6-9.7
		c0.1-0.6,0.2-1.3,0.3-1.9c0.3-1.9,0.5-3.8,0.6-5.7l0.3-2.4c0.4-4,0.6-8.1,0.7-12.2c0-0.6,0-1.2,0.1-1.8c0-2,0.3-3.9,0.6-5.6
		l0.3-1.8c0.2-5,0.2-11,1.2-15.7c0.1-0.8,0.2-1.6,0.3-2.5c0.1-0.7,0.2-1.4,0.4-2.1c0.1-0.6,0.2-1.2,0.3-1.9c0.4-3.1,0.4-6.4-0.3-9.8
		c0-0.9,0.1-1.7,0.2-2.5c0.3-3.2,0.5-6.4,0.7-9.6c1.2-22.6-1.1-45.6-10.9-65.4c-0.3-0.7-0.7-1.4-1-2c-1.7-5.5-4.7-10.5-8.2-17
		c-0.3-0.5-0.6-1.1-0.9-1.6c-0.9-1.6-2.1-3-3.6-4.3c-0.4-0.6-0.7-1.1-1.1-1.7c-0.7-1.1-1.5-2.2-2.4-3.3c-0.3-0.6-0.6-1.2-1-1.9
		c-0.7-1.2-1.4-2.4-2.4-3.6c-0.3-0.5-0.7-1.1-1.1-1.6c-0.8-1-1.8-1.9-3-2.8c-0.5-0.6-1-1.2-1.5-1.7c-1.5-1.7-3.3-3.3-5.2-4.6
		c-0.4-0.6-0.7-1.1-1.1-1.7c-2.6-3.9-5.8-7.3-10.1-8c-0.5-0.4-1.1-0.8-1.6-1.2c-1.7-1.1-3.5-2.1-5.1-3.2c-0.6-0.4-1.2-0.7-1.9-1
		c-0.7-0.3-1.4-0.6-2.1-0.8c-0.5-0.4-1-0.8-1.6-1.1c-1.1-0.7-2.3-1.3-3.7-1.7c-0.6-0.4-1.1-0.9-1.6-1.3c-2.2-1.8-4.6-3.2-7.3-4.4
		c-0.5-0.4-1.1-0.8-1.6-1.2c-1.7-1.1-3.5-2-5.6-2.5c-0.7-0.3-1.3-0.6-1.9-0.9c-1.9-0.8-3.9-1.5-5.9-1.9c-0.6-0.3-1.2-0.7-1.8-1
		c-0.6-0.3-1.2-0.7-1.8-1c-0.6-0.3-1.3-0.7-1.9-1c-5-3.3-9.6-8.5-15.5-11.6c-0.7-0.3-1.3-0.7-2-0.9c-1.2-1.8-2.8-2.9-4.6-3.6
		c-0.6-0.2-1.2-0.4-1.8-0.5c-5.7-2-12.7,0-19.2-2.5c-0.4-0.1-0.9-0.2-1.3-0.3c-1.8-0.4-3.7-0.7-5.7-0.9c-0.7-0.1-1.4-0.2-2.1-0.2
		c-3.4-0.4-6.8-0.3-10.1-0.6c-0.7-0.1-1.4-0.2-2.1-0.2c-2.1-0.2-4.2-0.4-6.4-0.5c-0.8-0.1-1.6-0.1-2.4-0.1s-1.6-0.1-2.4-0.1
		c-4.2-0.9-8.4-1.9-12.6-2.4c-0.7-0.1-1.4-0.1-2.1-0.1c-7.4-1-14.4,2-20.6,5.1c-0.5,0.2-1.1,0.4-1.7,0.7c-1.1,0.4-2.2,0.9-3.4,1.3
		c-0.7,0.1-1.4,0.1-2.1,0.2c-4.8,0.4-9.6,0.3-14,1.7c-0.7,0.1-1.3,0.1-2,0.2c-3.3,0.3-6.4,1.1-9.1,3.4c-0.5,0.3-1,0.7-1.4,1
		c-1.4,1.1-2.9,2.4-4.6,3.6c-0.6,0.2-1.2,0.5-1.8,0.7c-0.6,0.2-1.2,0.5-1.8,0.7c-0.6,0.1-1.2,0.1-1.8,0.2c-3,0.5-5.8,1.9-8.6,4.6
		c-0.6,0.3-1.2,0.5-1.7,0.8c-4.4,2.4-7.6,7-9.2,11.4c-0.3,0.4-0.6,0.8-0.8,1.3c-1.3,2.2-2.5,4.7-3.8,7.3c-0.6,0.5-1.1,1-1.7,1.5
		c-2.9,2.4-5.8,4.7-8.8,6.8c-0.6,0.4-1.2,0.9-1.8,1.3c-0.6,0.4-1.2,0.8-1.8,1.1c-0.6,0.3-1.2,0.6-1.9,0.8c-1.8,0.1-3.7,0.1-5.5,0.2
		c-0.6,0-1.2,0.1-1.8,0.1c-6.8-1.1-12.8,0.9-18.6,2.9c-0.7,0.1-1.3,0.2-2,0.3c-1.4,0.2-2.8,0.3-4.2,0.4c-0.7-0.1-1.4-0.2-2.1-0.2
		c-4.9-0.4-13.9-2.4-13.9,4.6c0,3,4,6,4.9,8.9c-0.1,0.4-0.2,0.7-0.4,1.1c-0.2,0.4-0.5,0.7-0.9,1c-0.3,0.5-0.7,0.9-1,1.4
		c-1,1.4-2,2.8-3,4.1c-0.5,0.5-1,0.9-1.4,1.4c-1.4,1.3-2.8,2.7-4,4.2c-0.5,0.3-0.9,0.7-1.4,1.2s-0.9,1-1.3,1.7
		c-0.5,0.6-0.9,1.2-1.3,1.8c-1.9,3.2-2.5,7-3.2,9.9l-0.3,2.1c-0.1,0.7-0.1,1.4-0.2,2.2v2c0,0.7,0.1,1.3,0.1,2l-0.3,1.8
		c-0.3,3.6,0.3,7.3-0.2,10.6v2.2c0,3.7,0.2,7.4-0.2,10.7v2.4c-0.2,0.8-0.3,1.6-0.4,2.3c-2.9,16.4-2.4,34.1-2.4,50.4v1.4
		c0,1.9,0.1,3.8,0.4,5.7c0,0.7-0.1,1.4-0.1,2.1c-0.1,3.4,0,6.8,0.6,10.1c0,0.7-0.1,1.4-0.2,2.1c-0.6,7.4-0.4,15.1,0.5,22.4v2.1
		c0,2.8,0.3,5.6,0.8,8.4c0,0.7-0.1,1.4-0.1,2.1c0,0.7-0.1,1.4-0.1,2.1c0,0.6,0,1.2,0.1,1.9c0.4,3.7,2.2,7.4,2.4,10.8
		c0.1,0.8,0.1,1.5,0.2,2.3c0.4,3.8,0.9,7.6,1.2,11.5c-0.1,0.8-0.1,1.5-0.1,2.3s0.1,1.6,0.3,2.4c2,6,3,12,3.8,18.4
		c0,0.7,0,1.5,0.1,2.2c0,2.2,0.1,4.5,0.1,6.9v2.2c-0.1,3.7-0.4,7.4-1.4,11c-0.2,0.7-0.3,1.5-0.5,2.2c-0.6,3-1.1,6-1.2,8.9
		c-0.2,0.7-0.4,1.3-0.6,2c-0.4,1.3-0.8,2.7-1.2,4.1c-0.3,0.6-0.6,1.2-1,1.8c-5.1,9.5-14.8,25.4-25,32c-14.3,9.2-31.5,12.7-48.2,15.9
		c-6.5,1.3-13.1,2.5-19.8,3.3c-3.3,0.4-6.6,0.7-10,0.9c-34.1,3.1-59.1-27.9-83-47.7c-2.1-2.2-4.2-4.4-6.2-6.7
		c-16.4-17.9-30.9-37.2-39.4-60.2c-1.2-2.8-2.3-5.7-3.2-8.6c-2-2.8-3.8-5.7-5.6-8.6c-8.7-14.4-14.3-30.1-22.9-45
		c-1.8-2.9-3.4-5.9-4.8-9c-0.9-1.3-1.8-2.6-2.6-3.9c-4.3-6.5-8.3-13.3-12.4-20.3c-1-1.3-2.1-2.6-3.2-3.9c-7.5-9.1-15.7-17.3-25.1-25
		l-3.6-3.3c-10-8.5-21.9-14.2-33.6-20.6c-1.6-0.9-3.1-1.8-4.7-2.7c-23.4-13.3-48.8-23.2-75.2-28.8c-1.9-0.4-3.9-0.8-5.9-1.2
		c-6.6-0.5-13.6-1.8-20.6-2.8l-4.2-0.6c-1.3-0.5-2.6-0.9-3.9-1.3c-1.3-0.3-2.6-0.6-3.8-0.8c-4-0.6-8.2-0.9-12.2-0.8
		c-0.7,0-1.3,0-2,0.1c-2-0.8-4-0.8-5.9-0.5c-0.6,0.1-1.3,0.3-1.9,0.4c-4.4,1.3-9.1,1.2-13.6,0.7c-0.6-0.1-1.3-0.2-1.9-0.2
		c-1-0.7-3-0.7-4-0.7C865.5,705.5,857.7,702.3,856.4,701.2L856.4,701.2z"/>
	<path id="зелень" class="st1" d="M622.8,80.5L638,81l61,12l5,10l-6,62l-84.2-8.1L622.8,80.5z M56.8,192l43.2,3
		c10,3,8,12,8,12L78,383c-6,10-21,10-21,10L56.8,192z"/>
	<g id="дороги">
		<g id="котросольный_мост">
			<path class="st3" d="M782.5,1085.5l23-112l36-147l13.6-66"/>
			<path class="st4" d="M766.5,1083.5l26-114l40-142l24-72L889,632"/>
			<path class="st3" d="M516.5,765.5l29,18l185,75c0,0,60.3,17.1,57.9,90.7c0,0.5,0,1-0.1,1.5c1.6,6.3-0.4,13.3-0.7,19.2l-3.4,35.6"
				/>
			<path class="st3" d="M-12.5,936.5l99-117l288-36l86-5l69-18l29,17c0,0,149,59,164,67s46.5,17.1,65-17
				c6.2-11.4,10.4-19.5,13.4-25.2c0.2-0.4,0.4-0.9,0.7-1.3c0.7-2.1,1.5-4.1,2.4-6c0.3-0.6,0.7-1.2,1-1.8c16-19.9,45.1-13.2,67.1-4.5
				c0.7,0.3,1.5,0.6,2.2,0.9c0.8,0.3,1.5,0.6,2.2,0.9c16.4,8,31.5,21.7,30.8,41.6c0,0.4,0,0.9-0.1,1.3c-0.6,3.8-1.2,7.4-2.2,10.8
				c-0.2,0.7-0.4,1.3-0.7,2l-0.9,1.5l-0.9,1.5c-3.6,5.9-8.6,10.9-14,15.9c-0.6,0.5-1.2,1-1.9,1.4c-1.6,1.2-3.2,2.3-4.7,3.5l-1.5,1.2
				c-9.7,7.6-18.5,16.4-27.7,25.2c-0.5,0.5-1.1,1-1.6,1.6c-1.2,1.5-2.4,3.1-3.5,4.6c-0.4,0.5-0.7,1-1.1,1.6C840,916,832,926,828,940
				c-1.5,5.5-3.8,10.8-6.6,15.9c-0.4,0.6-0.7,1.3-1.1,1.9c-3.3,4.3-5.7,8.9-7.4,13.7c-0.3,0.7-0.5,1.4-0.7,2.1l-9.2,12.6"/>
			<path class="st5" d="M850.2,506.3L840,520l-5,118l-73,15l-48,29l-87,30l-98,48"/>
			<path class="st5" d="M87,820l22,33l389-50l301-133l36-6v-26 M835,664l39,20l58,18l60,3l51.6-11.3"/>
		</g>
		<g id="даманский">
			<path class="st5" d="M1546,821.7l35.5,24.8"/>
			<path class="st6" d="M1606.5,783.5h-88l-22-26l-64-113l-12.6-21.2L1401,540l-20-36l-29-50"/>
			<path class="st5" d="M1519.5,783.5l10,38v142l5,13h7l9-10l-5-161L1519.5,783.5z M1576.5,990.5l-26-24 M1545.5,805.5l18-22"/>
		</g>
		<g id="волк-богоявл">
			<circle class="st3" cx="890.5" cy="504.5" r="16"/>
			<circle class="st3" cx="759.5" cy="126.5" r="27"/>
			<path class="st3" d="M759.5-7.5l-29,81v50c0,0-8.7,48.7-7,65c1.1,10.2,8,30,13,39l153,216c21,27,4.5,36.9-4,44c-24,20,0,33,0,33
				L889,632"/>
			<path class="st3" d="M819.5,0.5l-37,119l50,129l143,179c0,0,28,38,4,51l-80,40L889,632"/>
		</g>
		<path id="свобода" class="st5" d="M-27.5,159.5l156,15l145,23l108,8l94,5l130,14h127"/>
		<path id="большая_окт" class="st5" d="M-17.5,594.5l69-5l227-23l104-13l147-13l155-20l82-8l108-8"/>
		<path id="собинова" class="st5" d="M621.3,528.6l-24.4-305L609,224l8-112L638-2"/>
		<g id="чайковского">
			<path class="st5" d="M57.1,167.6L51,589l35,230"/>
			<path class="st5" d="M52,527l37-129l40-223L188,0"/>
		</g>
		<g id="волжск_наб">
			<path class="st6" d="M1513,578l-13,21l-112,34l-81,62l-190,65l-83-46l18-38l60-70l37-33l144-53h41l47-16l132,21l68,24l99,41l50,4
				l28-6l5-17l-28-107l-77-164l-65-99L1492,35l-21-42"/>
			<path class="st6" d="M1401,540l115,8l60,21l107,55c0,0,32,20,26,55 M1013.6,471.5L1105,529l15,11l29,33"/>
		</g>
		<path id="кирова" class="st7" d="M816.6,207.6L1043,153l144-41"/>
		<path id="депутатский" class="st7" d="M910.8,346.5L1002,281l88-62"/>
		<path id="андропова" class="st7" d="M934-7l109,161l99,134l75,113"/>
		<path id="нахимсона" class="st7" d="M983.4,475.8l40.6-5.8l151-233l56-74"/>
		<path id="советская" class="st7" d="M1302,160l66-44l-94-129l-54,40l-16,22l-16,62l40,51L1302,160z"/>
		<g id="революционная">
			<path class="st6" d="M1395,283l-125,88l-51,30l-19,17l-48,79l-32,43"/>
			<path class="st6" d="M1105,529l29-46l51-72l23.9-22.2L1320,319l64-47"/>
		</g>
		<path id="площадь_челюск" class="st6" d="M1302,160l86,116l48,59l35,35l128,119l-15.4,61.1 M1657,461l-101-110
			l-30-44l-58-63l-46-56l-54-72l126.2-77.4 M1471,370l55-63"/>
		<path id="республианская" class="st6" d="M375,784l8-230l-4-87l7-23V343h38l-6.4-135.6"/>
	</g>
</g>
</svg>
