<?xml version="1.0" encoding="utf-8"?>
<!-- Generator: Adobe Illustrator 21.0.0, SVG Export Plug-In . SVG Version: 6.00 Build 0)  -->
<svg version="1.1" id="Layer_1" xmlns="http://www.w3.org/2000/svg" xmlns:xlink="http://www.w3.org/1999/xlink" x="0px" y="0px"
	 viewBox="0 0 50 60" style="enable-background:new 0 0 50 60;" xml:space="preserve">
<style type="text/css">
	.st0{fill:#FFFFFF;}
	.st1{fill:#FAB005;}
	.st2{fill:none;stroke:#000000;stroke-miterlimit:10;}
</style>
<circle class="st0" cx="25" cy="25" r="21.5"/>
<path class="st1" d="M25,0C11.2,0,0,11.2,0,25c0,22.5,25,35,25,35s25-12.5,25-35C50,11.2,38.8,0,25,0z M25,3.8
	c11.7,0,21.3,9.5,21.3,21.2S36.7,46.3,25,46.3S3.8,36.7,3.8,25S13.3,3.8,25,3.8z"/>
<g>
	<path class="st2" d="M12.5,32h25v2h-25V32z M13.8,30h22.5v2H13.8V30z M36.3,18.5H13.8V15L25,12.5L36.3,15V18.5z M15.3,18.5h2.5V30
		h-2.5L15.3,18.5z M32.3,18.5h2.5V30h-2.5V18.5z M19.5,18.5H22V30h-2.5V18.5z M28,18.5h2.5V30H28V18.5z M23.8,18.5h2.5V30h-2.5V18.5
		z"/>
</g>
</svg>
